<svg width="19" height="19" viewBox="0 0 19 19" fill="none" xmlns="http://www.w3.org/2000/svg">
<path d="M8.89001 18.7C8.80396 18.6276 8.73304 18.5389 8.6814 18.439C8.62976 18.3391 8.59841 18.2299 8.58911 18.1178C8.57982 18.0058 8.59272 17.893 8.6272 17.7859C8.66167 17.6789 8.71708 17.5797 8.79004 17.4941L15.4399 10.9371H1.44995C1.19808 10.9368 0.956667 10.8366 0.778564 10.6585C0.600462 10.4804 0.500265 10.239 0.5 9.9871V9.97709C0.5 9.72513 0.600039 9.4835 0.778198 9.30534C0.956358 9.12718 1.198 9.02702 1.44995 9.02702H15.375L8.79797 2.54203C8.72242 2.45398 8.66504 2.35182 8.62915 2.24149C8.59326 2.13117 8.57957 2.01485 8.58887 1.89921C8.59816 1.78356 8.6303 1.67085 8.68335 1.56767C8.7364 1.46449 8.8093 1.37286 8.89795 1.29801C9.054 1.12085 9.27295 1.01138 9.5083 0.992715C9.74365 0.974051 9.97704 1.04769 10.1591 1.19804L18.28 9.20609C18.431 9.38186 18.5062 9.61026 18.4891 9.84135C18.4721 10.0724 18.3641 10.2873 18.189 10.439C18.2019 10.5462 18.1906 10.655 18.156 10.7572C18.1214 10.8595 18.0644 10.9527 17.989 11.0301L10.115 18.7951C9.97393 18.9282 9.78595 19.0001 9.59204 18.995C9.32854 18.9919 9.07663 18.8861 8.89001 18.7Z" fill="#11293B"/>
</svg>
