<svg width="283" height="284" viewBox="0 0 283 284" fill="none" xmlns="http://www.w3.org/2000/svg">
<path d="M13.8046 249.388L13.8046 270.096H34.5119V249.388H13.8046Z" fill="black"/>
<path d="M0 283.9H48.3171V235.583H0L0 283.9ZM6.90244 276.998L6.90244 242.486H41.4146V276.998H6.90244Z" fill="black"/>
<path d="M269.195 35.4124V14.7051L248.488 14.7051V35.4124H269.195Z" fill="black"/>
<path d="M283 0.900391L234.683 0.900391V49.2175H283V0.900391ZM276.098 7.80283V42.315H241.585V7.80283L276.098 7.80283Z" fill="black"/>
<path d="M34.5119 14.7051H13.8046V35.4124H34.5119V14.7051Z" fill="black"/>
<path d="M0 0.900391V49.2175H48.3171V0.900391H0ZM6.90244 7.80283H41.4146V42.315H6.90244V7.80283Z" fill="black"/>
<path d="M62.1217 0.900391H55.2192V7.80283H62.1217V0.900391Z" fill="black"/>
<path d="M69.0243 0.900391H62.1218V7.80283H69.0243V0.900391Z" fill="black"/>
<path d="M82.8293 0.900391H75.9269V7.80283H82.8293V0.900391Z" fill="black"/>
<path d="M103.536 0.900391H96.634V7.80283H103.536V0.900391Z" fill="black"/>
<path d="M110.439 0.900391H103.536V7.80283H110.439V0.900391Z" fill="black"/>
<path d="M117.342 0.900391H110.439V7.80283H117.342V0.900391Z" fill="black"/>
<path d="M131.147 0.900391H124.244V7.80283H131.147V0.900391Z" fill="black"/>
<path d="M138.049 0.900391H131.146V7.80283H138.049V0.900391Z" fill="black"/>
<path d="M151.854 0.900391H144.951V7.80283H151.854V0.900391Z" fill="black"/>
<path d="M179.463 0.900391H172.561V7.80283H179.463V0.900391Z" fill="black"/>
<path d="M186.366 0.900391H179.464V7.80283H186.366V0.900391Z" fill="black"/>
<path d="M193.268 0.900391H186.365V7.80283H193.268V0.900391Z" fill="black"/>
<path d="M213.976 0.900391H207.073V7.80283H213.976V0.900391Z" fill="black"/>
<path d="M220.878 0.900391H213.976V7.80283H220.878V0.900391Z" fill="black"/>
<path d="M82.8293 7.80273H75.9269V14.7052H82.8293V7.80273Z" fill="black"/>
<path d="M89.7319 7.80273H82.8295V14.7052H89.7319V7.80273Z" fill="black"/>
<path d="M96.6339 7.80273H89.7314V14.7052H96.6339V7.80273Z" fill="black"/>
<path d="M103.536 7.80273H96.634V14.7052H103.536V7.80273Z" fill="black"/>
<path d="M110.439 7.80273H103.536V14.7052H110.439V7.80273Z" fill="black"/>
<path d="M117.342 7.80273H110.439V14.7052H117.342V7.80273Z" fill="black"/>
<path d="M124.244 7.80273H117.342V14.7052H124.244V7.80273Z" fill="black"/>
<path d="M144.951 7.80273H138.049V14.7052H144.951V7.80273Z" fill="black"/>
<path d="M193.268 7.80273H186.365V14.7052H193.268V7.80273Z" fill="black"/>
<path d="M213.976 7.80273H207.073V14.7052H213.976V7.80273Z" fill="black"/>
<path d="M227.781 7.80273H220.878V14.7052H227.781V7.80273Z" fill="black"/>
<path d="M62.1217 14.7051H55.2192V21.6075H62.1217V14.7051Z" fill="black"/>
<path d="M69.0243 14.7051H62.1218V21.6075H69.0243V14.7051Z" fill="black"/>
<path d="M82.8293 14.7051H75.9269V21.6075H82.8293V14.7051Z" fill="black"/>
<path d="M103.536 14.7051H96.634V21.6075H103.536V14.7051Z" fill="black"/>
<path d="M117.342 14.7051H110.439V21.6075H117.342V14.7051Z" fill="black"/>
<path d="M124.244 14.7051H117.342V21.6075H124.244V14.7051Z" fill="black"/>
<path d="M131.147 14.7051H124.244V21.6075H131.147V14.7051Z" fill="black"/>
<path d="M138.049 14.7051H131.146V21.6075H138.049V14.7051Z" fill="black"/>
<path d="M151.854 14.7051H144.951V21.6075H151.854V14.7051Z" fill="black"/>
<path d="M158.756 14.7051H151.854V21.6075H158.756V14.7051Z" fill="black"/>
<path d="M165.659 14.7051H158.756V21.6075H165.659V14.7051Z" fill="black"/>
<path d="M186.366 14.7051H179.464V21.6075H186.366V14.7051Z" fill="black"/>
<path d="M207.074 14.7051H200.171V21.6075H207.074V14.7051Z" fill="black"/>
<path d="M220.878 14.7051H213.976V21.6075H220.878V14.7051Z" fill="black"/>
<path d="M62.1217 21.6074H55.2192V28.5099H62.1217V21.6074Z" fill="black"/>
<path d="M75.9269 21.6074H69.0244V28.5099H75.9269V21.6074Z" fill="black"/>
<path d="M89.7319 21.6074H82.8295V28.5099H89.7319V21.6074Z" fill="black"/>
<path d="M96.6339 21.6074H89.7314V28.5099H96.6339V21.6074Z" fill="black"/>
<path d="M103.536 21.6074H96.634V28.5099H103.536V21.6074Z" fill="black"/>
<path d="M110.439 21.6074H103.536V28.5099H110.439V21.6074Z" fill="black"/>
<path d="M117.342 21.6074H110.439V28.5099H117.342V21.6074Z" fill="black"/>
<path d="M138.049 21.6074H131.146V28.5099H138.049V21.6074Z" fill="black"/>
<path d="M144.951 21.6074H138.049V28.5099H144.951V21.6074Z" fill="black"/>
<path d="M151.854 21.6074H144.951V28.5099H151.854V21.6074Z" fill="black"/>
<path d="M158.756 21.6074H151.854V28.5099H158.756V21.6074Z" fill="black"/>
<path d="M172.561 21.6074H165.658V28.5099H172.561V21.6074Z" fill="black"/>
<path d="M179.463 21.6074H172.561V28.5099H179.463V21.6074Z" fill="black"/>
<path d="M220.878 21.6074H213.976V28.5099H220.878V21.6074Z" fill="black"/>
<path d="M69.0243 28.5098H62.1218V35.4122H69.0243V28.5098Z" fill="black"/>
<path d="M75.9269 28.5098H69.0244V35.4122H75.9269V28.5098Z" fill="black"/>
<path d="M82.8293 28.5098H75.9269V35.4122H82.8293V28.5098Z" fill="black"/>
<path d="M96.6339 28.5098H89.7314V35.4122H96.6339V28.5098Z" fill="black"/>
<path d="M103.536 28.5098H96.634V35.4122H103.536V28.5098Z" fill="black"/>
<path d="M144.951 28.5098H138.049V35.4122H144.951V28.5098Z" fill="black"/>
<path d="M186.366 28.5098H179.464V35.4122H186.366V28.5098Z" fill="black"/>
<path d="M193.268 28.5098H186.365V35.4122H193.268V28.5098Z" fill="black"/>
<path d="M200.17 28.5098H193.268V35.4122H200.17V28.5098Z" fill="black"/>
<path d="M62.1217 35.4121H55.2192V42.3145H62.1217V35.4121Z" fill="black"/>
<path d="M69.0243 35.4121H62.1218V42.3145H69.0243V35.4121Z" fill="black"/>
<path d="M75.9269 35.4121H69.0244V42.3145H75.9269V35.4121Z" fill="black"/>
<path d="M82.8293 35.4121H75.9269V42.3145H82.8293V35.4121Z" fill="black"/>
<path d="M89.7319 35.4121H82.8295V42.3145H89.7319V35.4121Z" fill="black"/>
<path d="M103.536 35.4121H96.634V42.3145H103.536V35.4121Z" fill="black"/>
<path d="M110.439 35.4121H103.536V42.3145H110.439V35.4121Z" fill="black"/>
<path d="M131.147 35.4121H124.244V42.3145H131.147V35.4121Z" fill="black"/>
<path d="M138.049 35.4121H131.146V42.3145H138.049V35.4121Z" fill="black"/>
<path d="M151.854 35.4121H144.951V42.3145H151.854V35.4121Z" fill="black"/>
<path d="M165.659 35.4121H158.756V42.3145H165.659V35.4121Z" fill="black"/>
<path d="M172.561 35.4121H165.658V42.3145H172.561V35.4121Z" fill="black"/>
<path d="M193.268 35.4121H186.365V42.3145H193.268V35.4121Z" fill="black"/>
<path d="M200.17 35.4121H193.268V42.3145H200.17V35.4121Z" fill="black"/>
<path d="M207.074 35.4121H200.171V42.3145H207.074V35.4121Z" fill="black"/>
<path d="M213.976 35.4121H207.073V42.3145H213.976V35.4121Z" fill="black"/>
<path d="M220.878 35.4121H213.976V42.3145H220.878V35.4121Z" fill="black"/>
<path d="M227.781 35.4121H220.878V42.3145H227.781V35.4121Z" fill="black"/>
<path d="M62.1217 42.3154H55.2192V49.2179H62.1217V42.3154Z" fill="black"/>
<path d="M75.9269 42.3154H69.0244V49.2179H75.9269V42.3154Z" fill="black"/>
<path d="M89.7319 42.3154H82.8295V49.2179H89.7319V42.3154Z" fill="black"/>
<path d="M103.536 42.3154H96.634V49.2179H103.536V42.3154Z" fill="black"/>
<path d="M117.342 42.3154H110.439V49.2179H117.342V42.3154Z" fill="black"/>
<path d="M131.147 42.3154H124.244V49.2179H131.147V42.3154Z" fill="black"/>
<path d="M144.951 42.3154H138.049V49.2179H144.951V42.3154Z" fill="black"/>
<path d="M158.756 42.3154H151.854V49.2179H158.756V42.3154Z" fill="black"/>
<path d="M172.561 42.3154H165.658V49.2179H172.561V42.3154Z" fill="black"/>
<path d="M186.366 42.3154H179.464V49.2179H186.366V42.3154Z" fill="black"/>
<path d="M200.17 42.3154H193.268V49.2179H200.17V42.3154Z" fill="black"/>
<path d="M213.976 42.3154H207.073V49.2179H213.976V42.3154Z" fill="black"/>
<path d="M227.781 42.3154H220.878V49.2179H227.781V42.3154Z" fill="black"/>
<path d="M62.1217 49.2178H55.2192V56.1202H62.1217V49.2178Z" fill="black"/>
<path d="M82.8293 49.2178H75.9269V56.1202H82.8293V49.2178Z" fill="black"/>
<path d="M138.049 49.2178H131.146V56.1202H138.049V49.2178Z" fill="black"/>
<path d="M151.854 49.2178H144.951V56.1202H151.854V49.2178Z" fill="black"/>
<path d="M172.561 49.2178H165.658V56.1202H172.561V49.2178Z" fill="black"/>
<path d="M186.366 49.2178H179.464V56.1202H186.366V49.2178Z" fill="black"/>
<path d="M193.268 49.2178H186.365V56.1202H193.268V49.2178Z" fill="black"/>
<path d="M207.074 49.2178H200.171V56.1202H207.074V49.2178Z" fill="black"/>
<path d="M213.976 49.2178H207.073V56.1202H213.976V49.2178Z" fill="black"/>
<path d="M227.781 49.2178H220.878V56.1202H227.781V49.2178Z" fill="black"/>
<path d="M13.805 56.1201H6.90259V63.0226H13.805V56.1201Z" fill="black"/>
<path d="M27.6095 56.1201H20.707V63.0226H27.6095V56.1201Z" fill="black"/>
<path d="M41.4146 56.1201H34.5122V63.0226H41.4146V56.1201Z" fill="black"/>
<path d="M48.3171 56.1201H41.4147V63.0226H48.3171V56.1201Z" fill="black"/>
<path d="M55.2192 56.1201H48.3168V63.0226H55.2192V56.1201Z" fill="black"/>
<path d="M62.1217 56.1201H55.2192V63.0226H62.1217V56.1201Z" fill="black"/>
<path d="M69.0243 56.1201H62.1218V63.0226H69.0243V56.1201Z" fill="black"/>
<path d="M75.9269 56.1201H69.0244V63.0226H75.9269V56.1201Z" fill="black"/>
<path d="M89.7319 56.1201H82.8295V63.0226H89.7319V56.1201Z" fill="black"/>
<path d="M96.6339 56.1201H89.7314V63.0226H96.6339V56.1201Z" fill="black"/>
<path d="M110.439 56.1201H103.536V63.0226H110.439V56.1201Z" fill="black"/>
<path d="M117.342 56.1201H110.439V63.0226H117.342V56.1201Z" fill="black"/>
<path d="M124.244 56.1201H117.342V63.0226H124.244V56.1201Z" fill="black"/>
<path d="M138.049 56.1201H131.146V63.0226H138.049V56.1201Z" fill="black"/>
<path d="M151.854 56.1201H144.951V63.0226H151.854V56.1201Z" fill="black"/>
<path d="M172.561 56.1201H165.658V63.0226H172.561V56.1201Z" fill="black"/>
<path d="M179.463 56.1201H172.561V63.0226H179.463V56.1201Z" fill="black"/>
<path d="M186.366 56.1201H179.464V63.0226H186.366V56.1201Z" fill="black"/>
<path d="M193.268 56.1201H186.365V63.0226H193.268V56.1201Z" fill="black"/>
<path d="M200.17 56.1201H193.268V63.0226H200.17V56.1201Z" fill="black"/>
<path d="M227.781 56.1201H220.878V63.0226H227.781V56.1201Z" fill="black"/>
<path d="M234.683 56.1201H227.78V63.0226H234.683V56.1201Z" fill="black"/>
<path d="M241.585 56.1201H234.683V63.0226H241.585V56.1201Z" fill="black"/>
<path d="M248.488 56.1201H241.586V63.0226H248.488V56.1201Z" fill="black"/>
<path d="M262.293 56.1201H255.39V63.0226H262.293V56.1201Z" fill="black"/>
<path d="M269.195 56.1201H262.293V63.0226H269.195V56.1201Z" fill="black"/>
<path d="M283 56.1201H276.097V63.0226H283V56.1201Z" fill="black"/>
<path d="M13.805 63.0225H6.90259V69.9249H13.805V63.0225Z" fill="black"/>
<path d="M20.707 63.0225H13.8046V69.9249H20.707V63.0225Z" fill="black"/>
<path d="M62.1217 63.0225H55.2192V69.9249H62.1217V63.0225Z" fill="black"/>
<path d="M75.9269 63.0225H69.0244V69.9249H75.9269V63.0225Z" fill="black"/>
<path d="M82.8293 63.0225H75.9269V69.9249H82.8293V63.0225Z" fill="black"/>
<path d="M131.147 63.0225H124.244V69.9249H131.147V63.0225Z" fill="black"/>
<path d="M151.854 63.0225H144.951V69.9249H151.854V63.0225Z" fill="black"/>
<path d="M172.561 63.0225H165.658V69.9249H172.561V63.0225Z" fill="black"/>
<path d="M179.463 63.0225H172.561V69.9249H179.463V63.0225Z" fill="black"/>
<path d="M186.366 63.0225H179.464V69.9249H186.366V63.0225Z" fill="black"/>
<path d="M200.17 63.0225H193.268V69.9249H200.17V63.0225Z" fill="black"/>
<path d="M207.074 63.0225H200.171V69.9249H207.074V63.0225Z" fill="black"/>
<path d="M213.976 63.0225H207.073V69.9249H213.976V63.0225Z" fill="black"/>
<path d="M227.781 63.0225H220.878V69.9249H227.781V63.0225Z" fill="black"/>
<path d="M262.293 63.0225H255.39V69.9249H262.293V63.0225Z" fill="black"/>
<path d="M269.195 63.0225H262.293V69.9249H269.195V63.0225Z" fill="black"/>
<path d="M283 63.0225H276.097V69.9249H283V63.0225Z" fill="black"/>
<path d="M34.5127 69.9248H27.6102V76.8272H34.5127V69.9248Z" fill="black"/>
<path d="M41.4146 69.9248H34.5122V76.8272H41.4146V69.9248Z" fill="black"/>
<path d="M48.3171 69.9248H41.4147V76.8272H48.3171V69.9248Z" fill="black"/>
<path d="M55.2192 69.9248H48.3168V76.8272H55.2192V69.9248Z" fill="black"/>
<path d="M89.7319 69.9248H82.8295V76.8272H89.7319V69.9248Z" fill="black"/>
<path d="M124.244 69.9248H117.342V76.8272H124.244V69.9248Z" fill="black"/>
<path d="M138.049 69.9248H131.146V76.8272H138.049V69.9248Z" fill="black"/>
<path d="M144.951 69.9248H138.049V76.8272H144.951V69.9248Z" fill="black"/>
<path d="M179.463 69.9248H172.561V76.8272H179.463V69.9248Z" fill="black"/>
<path d="M200.17 69.9248H193.268V76.8272H200.17V69.9248Z" fill="black"/>
<path d="M207.074 69.9248H200.171V76.8272H207.074V69.9248Z" fill="black"/>
<path d="M213.976 69.9248H207.073V76.8272H213.976V69.9248Z" fill="black"/>
<path d="M220.878 69.9248H213.976V76.8272H220.878V69.9248Z" fill="black"/>
<path d="M241.585 69.9248H234.683V76.8272H241.585V69.9248Z" fill="black"/>
<path d="M248.488 69.9248H241.586V76.8272H248.488V69.9248Z" fill="black"/>
<path d="M262.293 69.9248H255.39V76.8272H262.293V69.9248Z" fill="black"/>
<path d="M269.195 69.9248H262.293V76.8272H269.195V69.9248Z" fill="black"/>
<path d="M6.90244 76.8271H0V83.7296H6.90244V76.8271Z" fill="black"/>
<path d="M27.6095 76.8271H20.707V83.7296H27.6095V76.8271Z" fill="black"/>
<path d="M62.1217 76.8271H55.2192V83.7296H62.1217V76.8271Z" fill="black"/>
<path d="M69.0243 76.8271H62.1218V83.7296H69.0243V76.8271Z" fill="black"/>
<path d="M75.9269 76.8271H69.0244V83.7296H75.9269V76.8271Z" fill="black"/>
<path d="M82.8293 76.8271H75.9269V83.7296H82.8293V76.8271Z" fill="black"/>
<path d="M89.7319 76.8271H82.8295V83.7296H89.7319V76.8271Z" fill="black"/>
<path d="M103.536 76.8271H96.634V83.7296H103.536V76.8271Z" fill="black"/>
<path d="M117.342 76.8271H110.439V83.7296H117.342V76.8271Z" fill="black"/>
<path d="M138.049 76.8271H131.146V83.7296H138.049V76.8271Z" fill="black"/>
<path d="M165.659 76.8271H158.756V83.7296H165.659V76.8271Z" fill="black"/>
<path d="M179.463 76.8271H172.561V83.7296H179.463V76.8271Z" fill="black"/>
<path d="M186.366 76.8271H179.464V83.7296H186.366V76.8271Z" fill="black"/>
<path d="M193.268 76.8271H186.365V83.7296H193.268V76.8271Z" fill="black"/>
<path d="M213.976 76.8271H207.073V83.7296H213.976V76.8271Z" fill="black"/>
<path d="M234.683 76.8271H227.78V83.7296H234.683V76.8271Z" fill="black"/>
<path d="M269.195 76.8271H262.293V83.7296H269.195V76.8271Z" fill="black"/>
<path d="M6.90244 83.7295H0V90.6319H6.90244V83.7295Z" fill="black"/>
<path d="M48.3171 83.7295H41.4147V90.6319H48.3171V83.7295Z" fill="black"/>
<path d="M55.2192 83.7295H48.3168V90.6319H55.2192V83.7295Z" fill="black"/>
<path d="M110.439 83.7295H103.536V90.6319H110.439V83.7295Z" fill="black"/>
<path d="M117.342 83.7295H110.439V90.6319H117.342V83.7295Z" fill="black"/>
<path d="M124.244 83.7295H117.342V90.6319H124.244V83.7295Z" fill="black"/>
<path d="M131.147 83.7295H124.244V90.6319H131.147V83.7295Z" fill="black"/>
<path d="M144.951 83.7295H138.049V90.6319H144.951V83.7295Z" fill="black"/>
<path d="M151.854 83.7295H144.951V90.6319H151.854V83.7295Z" fill="black"/>
<path d="M165.659 83.7295H158.756V90.6319H165.659V83.7295Z" fill="black"/>
<path d="M193.268 83.7295H186.365V90.6319H193.268V83.7295Z" fill="black"/>
<path d="M207.074 83.7295H200.171V90.6319H207.074V83.7295Z" fill="black"/>
<path d="M220.878 83.7295H213.976V90.6319H220.878V83.7295Z" fill="black"/>
<path d="M241.585 83.7295H234.683V90.6319H241.585V83.7295Z" fill="black"/>
<path d="M262.293 83.7295H255.39V90.6319H262.293V83.7295Z" fill="black"/>
<path d="M34.5127 90.6318H27.6102V97.5343H34.5127V90.6318Z" fill="black"/>
<path d="M89.7319 90.6318H82.8295V97.5343H89.7319V90.6318Z" fill="black"/>
<path d="M96.6339 90.6318H89.7314V97.5343H96.6339V90.6318Z" fill="black"/>
<path d="M124.244 90.6318H117.342V97.5343H124.244V90.6318Z" fill="black"/>
<path d="M158.756 90.6318H151.854V97.5343H158.756V90.6318Z" fill="black"/>
<path d="M165.659 90.6318H158.756V97.5343H165.659V90.6318Z" fill="black"/>
<path d="M179.463 90.6318H172.561V97.5343H179.463V90.6318Z" fill="black"/>
<path d="M186.366 90.6318H179.464V97.5343H186.366V90.6318Z" fill="black"/>
<path d="M200.17 90.6318H193.268V97.5343H200.17V90.6318Z" fill="black"/>
<path d="M207.074 90.6318H200.171V97.5343H207.074V90.6318Z" fill="black"/>
<path d="M220.878 90.6318H213.976V97.5343H220.878V90.6318Z" fill="black"/>
<path d="M248.488 90.6318H241.586V97.5343H248.488V90.6318Z" fill="black"/>
<path d="M262.293 90.6318H255.39V97.5343H262.293V90.6318Z" fill="black"/>
<path d="M269.195 90.6318H262.293V97.5343H269.195V90.6318Z" fill="black"/>
<path d="M283 90.6318H276.097V97.5343H283V90.6318Z" fill="black"/>
<path d="M6.90244 97.5342H0V104.437H6.90244V97.5342Z" fill="black"/>
<path d="M13.805 97.5342H6.90259V104.437H13.805V97.5342Z" fill="black"/>
<path d="M27.6095 97.5342H20.707V104.437H27.6095V97.5342Z" fill="black"/>
<path d="M41.4146 97.5342H34.5122V104.437H41.4146V97.5342Z" fill="black"/>
<path d="M48.3171 97.5342H41.4147V104.437H48.3171V97.5342Z" fill="black"/>
<path d="M69.0243 97.5342H62.1218V104.437H69.0243V97.5342Z" fill="black"/>
<path d="M75.9269 97.5342H69.0244V104.437H75.9269V97.5342Z" fill="black"/>
<path d="M82.8293 97.5342H75.9269V104.437H82.8293V97.5342Z" fill="black"/>
<path d="M89.7319 97.5342H82.8295V104.437H89.7319V97.5342Z" fill="black"/>
<path d="M103.536 97.5342H96.634V104.437H103.536V97.5342Z" fill="black"/>
<path d="M110.439 97.5342H103.536V104.437H110.439V97.5342Z" fill="black"/>
<path d="M117.342 97.5342H110.439V104.437H117.342V97.5342Z" fill="black"/>
<path d="M131.147 97.5342H124.244V104.437H131.147V97.5342Z" fill="black"/>
<path d="M138.049 97.5342H131.146V104.437H138.049V97.5342Z" fill="black"/>
<path d="M151.854 97.5342H144.951V104.437H151.854V97.5342Z" fill="black"/>
<path d="M158.756 97.5342H151.854V104.437H158.756V97.5342Z" fill="black"/>
<path d="M165.659 97.5342H158.756V104.437H165.659V97.5342Z" fill="black"/>
<path d="M186.366 97.5342H179.464V104.437H186.366V97.5342Z" fill="black"/>
<path d="M200.17 97.5342H193.268V104.437H200.17V97.5342Z" fill="black"/>
<path d="M213.976 97.5342H207.073V104.437H213.976V97.5342Z" fill="black"/>
<path d="M227.781 97.5342H220.878V104.437H227.781V97.5342Z" fill="black"/>
<path d="M241.585 97.5342H234.683V104.437H241.585V97.5342Z" fill="black"/>
<path d="M255.39 97.5342H248.488V104.437H255.39V97.5342Z" fill="black"/>
<path d="M269.195 97.5342H262.293V104.437H269.195V97.5342Z" fill="black"/>
<path d="M276.097 97.5342H269.195V104.437H276.097V97.5342Z" fill="black"/>
<path d="M283 97.5342H276.097V104.437H283V97.5342Z" fill="black"/>
<path d="M6.90244 104.437H0V111.339H6.90244V104.437Z" fill="black"/>
<path d="M13.805 104.437H6.90259V111.339H13.805V104.437Z" fill="black"/>
<path d="M20.707 104.437H13.8046V111.339H20.707V104.437Z" fill="black"/>
<path d="M27.6095 104.437H20.707V111.339H27.6095V104.437Z" fill="black"/>
<path d="M41.4146 104.437H34.5122V111.339H41.4146V104.437Z" fill="black"/>
<path d="M62.1217 104.437H55.2192V111.339H62.1217V104.437Z" fill="black"/>
<path d="M82.8293 104.437H75.9269V111.339H82.8293V104.437Z" fill="black"/>
<path d="M96.6339 104.437H89.7314V111.339H96.6339V104.437Z" fill="black"/>
<path d="M124.244 104.437H117.342V111.339H124.244V104.437Z" fill="black"/>
<path d="M131.147 104.437H124.244V111.339H131.147V104.437Z" fill="black"/>
<path d="M138.049 104.437H131.146V111.339H138.049V104.437Z" fill="black"/>
<path d="M151.854 104.437H144.951V111.339H151.854V104.437Z" fill="black"/>
<path d="M165.659 104.437H158.756V111.339H165.659V104.437Z" fill="black"/>
<path d="M179.463 104.437H172.561V111.339H179.463V104.437Z" fill="black"/>
<path d="M186.366 104.437H179.464V111.339H186.366V104.437Z" fill="black"/>
<path d="M207.074 104.437H200.171V111.339H207.074V104.437Z" fill="black"/>
<path d="M213.976 104.437H207.073V111.339H213.976V104.437Z" fill="black"/>
<path d="M220.878 104.437H213.976V111.339H220.878V104.437Z" fill="black"/>
<path d="M241.585 104.437H234.683V111.339H241.585V104.437Z" fill="black"/>
<path d="M255.39 104.437H248.488V111.339H255.39V104.437Z" fill="black"/>
<path d="M6.90244 111.339H0V118.241H6.90244V111.339Z" fill="black"/>
<path d="M13.805 111.339H6.90259V118.241H13.805V111.339Z" fill="black"/>
<path d="M20.707 111.339H13.8046V118.241H20.707V111.339Z" fill="black"/>
<path d="M27.6095 111.339H20.707V118.241H27.6095V111.339Z" fill="black"/>
<path d="M34.5127 111.339H27.6102V118.241H34.5127V111.339Z" fill="black"/>
<path d="M48.3171 111.339H41.4147V118.241H48.3171V111.339Z" fill="black"/>
<path d="M55.2192 111.339H48.3168V118.241H55.2192V111.339Z" fill="black"/>
<path d="M69.0243 111.339H62.1218V118.241H69.0243V111.339Z" fill="black"/>
<path d="M75.9269 111.339H69.0244V118.241H75.9269V111.339Z" fill="black"/>
<path d="M82.8293 111.339H75.9269V118.241H82.8293V111.339Z" fill="black"/>
<path d="M103.536 111.339H96.634V118.241H103.536V111.339Z" fill="black"/>
<path d="M124.244 111.339H117.342V118.241H124.244V111.339Z" fill="black"/>
<path d="M138.049 111.339H131.146V118.241H138.049V111.339Z" fill="black"/>
<path d="M158.756 111.339H151.854V118.241H158.756V111.339Z" fill="black"/>
<path d="M172.561 111.339H165.658V118.241H172.561V111.339Z" fill="black"/>
<path d="M186.366 111.339H179.464V118.241H186.366V111.339Z" fill="black"/>
<path d="M200.17 111.339H193.268V118.241H200.17V111.339Z" fill="black"/>
<path d="M207.074 111.339H200.171V118.241H207.074V111.339Z" fill="black"/>
<path d="M220.878 111.339H213.976V118.241H220.878V111.339Z" fill="black"/>
<path d="M248.488 111.339H241.586V118.241H248.488V111.339Z" fill="black"/>
<path d="M262.293 111.339H255.39V118.241H262.293V111.339Z" fill="black"/>
<path d="M283 111.339H276.097V118.241H283V111.339Z" fill="black"/>
<path d="M6.90244 118.242H0V125.145H6.90244V118.242Z" fill="black"/>
<path d="M27.6095 118.242H20.707V125.145H27.6095V118.242Z" fill="black"/>
<path d="M34.5127 118.242H27.6102V125.145H34.5127V118.242Z" fill="black"/>
<path d="M41.4146 118.242H34.5122V125.145H41.4146V118.242Z" fill="black"/>
<path d="M62.1217 118.242H55.2192V125.145H62.1217V118.242Z" fill="black"/>
<path d="M69.0243 118.242H62.1218V125.145H69.0243V118.242Z" fill="black"/>
<path d="M89.7319 118.242H82.8295V125.145H89.7319V118.242Z" fill="black"/>
<path d="M117.342 118.242H110.439V125.145H117.342V118.242Z" fill="black"/>
<path d="M124.244 118.242H117.342V125.145H124.244V118.242Z" fill="black"/>
<path d="M131.147 118.242H124.244V125.145H131.147V118.242Z" fill="black"/>
<path d="M144.951 118.242H138.049V125.145H144.951V118.242Z" fill="black"/>
<path d="M158.756 118.242H151.854V125.145H158.756V118.242Z" fill="black"/>
<path d="M165.659 118.242H158.756V125.145H165.659V118.242Z" fill="black"/>
<path d="M172.561 118.242H165.658V125.145H172.561V118.242Z" fill="black"/>
<path d="M241.585 118.242H234.683V125.145H241.585V118.242Z" fill="black"/>
<path d="M248.488 118.242H241.586V125.145H248.488V118.242Z" fill="black"/>
<path d="M269.195 118.242H262.293V125.145H269.195V118.242Z" fill="black"/>
<path d="M276.097 118.242H269.195V125.145H276.097V118.242Z" fill="black"/>
<path d="M283 118.242H276.097V125.145H283V118.242Z" fill="black"/>
<path d="M6.90244 125.145H0V132.047H6.90244V125.145Z" fill="black"/>
<path d="M13.805 125.145H6.90259V132.047H13.805V125.145Z" fill="black"/>
<path d="M20.707 125.145H13.8046V132.047H20.707V125.145Z" fill="black"/>
<path d="M27.6095 125.145H20.707V132.047H27.6095V125.145Z" fill="black"/>
<path d="M34.5127 125.145H27.6102V132.047H34.5127V125.145Z" fill="black"/>
<path d="M48.3171 125.145H41.4147V132.047H48.3171V125.145Z" fill="black"/>
<path d="M55.2192 125.145H48.3168V132.047H55.2192V125.145Z" fill="black"/>
<path d="M62.1217 125.145H55.2192V132.047H62.1217V125.145Z" fill="black"/>
<path d="M82.8293 125.145H75.9269V132.047H82.8293V125.145Z" fill="black"/>
<path d="M110.439 125.145H103.536V132.047H110.439V125.145Z" fill="black"/>
<path d="M117.342 125.145H110.439V132.047H117.342V125.145Z" fill="black"/>
<path d="M124.244 125.145H117.342V132.047H124.244V125.145Z" fill="black"/>
<path d="M138.049 125.145H131.146V132.047H138.049V125.145Z" fill="black"/>
<path d="M144.951 125.145H138.049V132.047H144.951V125.145Z" fill="black"/>
<path d="M158.756 125.145H151.854V132.047H158.756V125.145Z" fill="black"/>
<path d="M172.561 125.145H165.658V132.047H172.561V125.145Z" fill="black"/>
<path d="M179.463 125.145H172.561V132.047H179.463V125.145Z" fill="black"/>
<path d="M200.17 125.145H193.268V132.047H200.17V125.145Z" fill="black"/>
<path d="M207.074 125.145H200.171V132.047H207.074V125.145Z" fill="black"/>
<path d="M213.976 125.145H207.073V132.047H213.976V125.145Z" fill="black"/>
<path d="M234.683 125.145H227.78V132.047H234.683V125.145Z" fill="black"/>
<path d="M255.39 125.145H248.488V132.047H255.39V125.145Z" fill="black"/>
<path d="M262.293 125.145H255.39V132.047H262.293V125.145Z" fill="black"/>
<path d="M283 125.145H276.097V132.047H283V125.145Z" fill="black"/>
<path d="M6.90244 132.047H0V138.949H6.90244V132.047Z" fill="black"/>
<path d="M13.805 132.047H6.90259V138.949H13.805V132.047Z" fill="black"/>
<path d="M34.5127 132.047H27.6102V138.949H34.5127V132.047Z" fill="black"/>
<path d="M41.4146 132.047H34.5122V138.949H41.4146V132.047Z" fill="black"/>
<path d="M75.9269 132.047H69.0244V138.949H75.9269V132.047Z" fill="black"/>
<path d="M89.7319 132.047H82.8295V138.949H89.7319V132.047Z" fill="black"/>
<path d="M110.439 132.047H103.536V138.949H110.439V132.047Z" fill="black"/>
<path d="M117.342 132.047H110.439V138.949H117.342V132.047Z" fill="black"/>
<path d="M131.147 132.047H124.244V138.949H131.147V132.047Z" fill="black"/>
<path d="M138.049 132.047H131.146V138.949H138.049V132.047Z" fill="black"/>
<path d="M158.756 132.047H151.854V138.949H158.756V132.047Z" fill="black"/>
<path d="M165.659 132.047H158.756V138.949H165.659V132.047Z" fill="black"/>
<path d="M179.463 132.047H172.561V138.949H179.463V132.047Z" fill="black"/>
<path d="M193.268 132.047H186.365V138.949H193.268V132.047Z" fill="black"/>
<path d="M207.074 132.047H200.171V138.949H207.074V132.047Z" fill="black"/>
<path d="M248.488 132.047H241.586V138.949H248.488V132.047Z" fill="black"/>
<path d="M262.293 132.047H255.39V138.949H262.293V132.047Z" fill="black"/>
<path d="M283 132.047H276.097V138.949H283V132.047Z" fill="black"/>
<path d="M13.805 138.949H6.90259V145.852H13.805V138.949Z" fill="black"/>
<path d="M20.707 138.949H13.8046V145.852H20.707V138.949Z" fill="black"/>
<path d="M27.6095 138.949H20.707V145.852H27.6095V138.949Z" fill="black"/>
<path d="M48.3171 138.949H41.4147V145.852H48.3171V138.949Z" fill="black"/>
<path d="M55.2192 138.949H48.3168V145.852H55.2192V138.949Z" fill="black"/>
<path d="M62.1217 138.949H55.2192V145.852H62.1217V138.949Z" fill="black"/>
<path d="M82.8293 138.949H75.9269V145.852H82.8293V138.949Z" fill="black"/>
<path d="M89.7319 138.949H82.8295V145.852H89.7319V138.949Z" fill="black"/>
<path d="M124.244 138.949H117.342V145.852H124.244V138.949Z" fill="black"/>
<path d="M151.854 138.949H144.951V145.852H151.854V138.949Z" fill="black"/>
<path d="M165.659 138.949H158.756V145.852H165.659V138.949Z" fill="black"/>
<path d="M186.366 138.949H179.464V145.852H186.366V138.949Z" fill="black"/>
<path d="M213.976 138.949H207.073V145.852H213.976V138.949Z" fill="black"/>
<path d="M220.878 138.949H213.976V145.852H220.878V138.949Z" fill="black"/>
<path d="M227.781 138.949H220.878V145.852H227.781V138.949Z" fill="black"/>
<path d="M234.683 138.949H227.78V145.852H234.683V138.949Z" fill="black"/>
<path d="M241.585 138.949H234.683V145.852H241.585V138.949Z" fill="black"/>
<path d="M248.488 138.949H241.586V145.852H248.488V138.949Z" fill="black"/>
<path d="M269.195 138.949H262.293V145.852H269.195V138.949Z" fill="black"/>
<path d="M276.097 138.949H269.195V145.852H276.097V138.949Z" fill="black"/>
<path d="M283 138.949H276.097V145.852H283V138.949Z" fill="black"/>
<path d="M6.90244 145.852H0V152.754H6.90244V145.852Z" fill="black"/>
<path d="M55.2192 145.852H48.3168V152.754H55.2192V145.852Z" fill="black"/>
<path d="M62.1217 145.852H55.2192V152.754H62.1217V145.852Z" fill="black"/>
<path d="M75.9269 145.852H69.0244V152.754H75.9269V145.852Z" fill="black"/>
<path d="M89.7319 145.852H82.8295V152.754H89.7319V145.852Z" fill="black"/>
<path d="M96.6339 145.852H89.7314V152.754H96.6339V145.852Z" fill="black"/>
<path d="M110.439 145.852H103.536V152.754H110.439V145.852Z" fill="black"/>
<path d="M117.342 145.852H110.439V152.754H117.342V145.852Z" fill="black"/>
<path d="M138.049 145.852H131.146V152.754H138.049V145.852Z" fill="black"/>
<path d="M158.756 145.852H151.854V152.754H158.756V145.852Z" fill="black"/>
<path d="M172.561 145.852H165.658V152.754H172.561V145.852Z" fill="black"/>
<path d="M179.463 145.852H172.561V152.754H179.463V145.852Z" fill="black"/>
<path d="M207.074 145.852H200.171V152.754H207.074V145.852Z" fill="black"/>
<path d="M213.976 145.852H207.073V152.754H213.976V145.852Z" fill="black"/>
<path d="M227.781 145.852H220.878V152.754H227.781V145.852Z" fill="black"/>
<path d="M241.585 145.852H234.683V152.754H241.585V145.852Z" fill="black"/>
<path d="M262.293 145.852H255.39V152.754H262.293V145.852Z" fill="black"/>
<path d="M269.195 145.852H262.293V152.754H269.195V145.852Z" fill="black"/>
<path d="M276.097 145.852H269.195V152.754H276.097V145.852Z" fill="black"/>
<path d="M283 145.852H276.097V152.754H283V145.852Z" fill="black"/>
<path d="M6.90244 152.754H0V159.656H6.90244V152.754Z" fill="black"/>
<path d="M27.6095 152.754H20.707V159.656H27.6095V152.754Z" fill="black"/>
<path d="M34.5127 152.754H27.6102V159.656H34.5127V152.754Z" fill="black"/>
<path d="M48.3171 152.754H41.4147V159.656H48.3171V152.754Z" fill="black"/>
<path d="M62.1217 152.754H55.2192V159.656H62.1217V152.754Z" fill="black"/>
<path d="M117.342 152.754H110.439V159.656H117.342V152.754Z" fill="black"/>
<path d="M124.244 152.754H117.342V159.656H124.244V152.754Z" fill="black"/>
<path d="M131.147 152.754H124.244V159.656H131.147V152.754Z" fill="black"/>
<path d="M151.854 152.754H144.951V159.656H151.854V152.754Z" fill="black"/>
<path d="M172.561 152.754H165.658V159.656H172.561V152.754Z" fill="black"/>
<path d="M179.463 152.754H172.561V159.656H179.463V152.754Z" fill="black"/>
<path d="M207.074 152.754H200.171V159.656H207.074V152.754Z" fill="black"/>
<path d="M220.878 152.754H213.976V159.656H220.878V152.754Z" fill="black"/>
<path d="M248.488 152.754H241.586V159.656H248.488V152.754Z" fill="black"/>
<path d="M262.293 152.754H255.39V159.656H262.293V152.754Z" fill="black"/>
<path d="M269.195 152.754H262.293V159.656H269.195V152.754Z" fill="black"/>
<path d="M276.097 152.754H269.195V159.656H276.097V152.754Z" fill="black"/>
<path d="M20.707 159.656H13.8046V166.559H20.707V159.656Z" fill="black"/>
<path d="M55.2192 159.656H48.3168V166.559H55.2192V159.656Z" fill="black"/>
<path d="M62.1217 159.656H55.2192V166.559H62.1217V159.656Z" fill="black"/>
<path d="M75.9269 159.656H69.0244V166.559H75.9269V159.656Z" fill="black"/>
<path d="M82.8293 159.656H75.9269V166.559H82.8293V159.656Z" fill="black"/>
<path d="M103.536 159.656H96.634V166.559H103.536V159.656Z" fill="black"/>
<path d="M110.439 159.656H103.536V166.559H110.439V159.656Z" fill="black"/>
<path d="M117.342 159.656H110.439V166.559H117.342V159.656Z" fill="black"/>
<path d="M144.951 159.656H138.049V166.559H144.951V159.656Z" fill="black"/>
<path d="M151.854 159.656H144.951V166.559H151.854V159.656Z" fill="black"/>
<path d="M158.756 159.656H151.854V166.559H158.756V159.656Z" fill="black"/>
<path d="M172.561 159.656H165.658V166.559H172.561V159.656Z" fill="black"/>
<path d="M179.463 159.656H172.561V166.559H179.463V159.656Z" fill="black"/>
<path d="M200.17 159.656H193.268V166.559H200.17V159.656Z" fill="black"/>
<path d="M213.976 159.656H207.073V166.559H213.976V159.656Z" fill="black"/>
<path d="M220.878 159.656H213.976V166.559H220.878V159.656Z" fill="black"/>
<path d="M227.781 159.656H220.878V166.559H227.781V159.656Z" fill="black"/>
<path d="M262.293 159.656H255.39V166.559H262.293V159.656Z" fill="black"/>
<path d="M269.195 159.656H262.293V166.559H269.195V159.656Z" fill="black"/>
<path d="M276.097 159.656H269.195V166.559H276.097V159.656Z" fill="black"/>
<path d="M283 159.656H276.097V166.559H283V159.656Z" fill="black"/>
<path d="M27.6095 166.559H20.707V173.461H27.6095V166.559Z" fill="black"/>
<path d="M34.5127 166.559H27.6102V173.461H34.5127V166.559Z" fill="black"/>
<path d="M48.3171 166.559H41.4147V173.461H48.3171V166.559Z" fill="black"/>
<path d="M62.1217 166.559H55.2192V173.461H62.1217V166.559Z" fill="black"/>
<path d="M69.0243 166.559H62.1218V173.461H69.0243V166.559Z" fill="black"/>
<path d="M82.8293 166.559H75.9269V173.461H82.8293V166.559Z" fill="black"/>
<path d="M89.7319 166.559H82.8295V173.461H89.7319V166.559Z" fill="black"/>
<path d="M124.244 166.559H117.342V173.461H124.244V166.559Z" fill="black"/>
<path d="M138.049 166.559H131.146V173.461H138.049V166.559Z" fill="black"/>
<path d="M144.951 166.559H138.049V173.461H144.951V166.559Z" fill="black"/>
<path d="M151.854 166.559H144.951V173.461H151.854V166.559Z" fill="black"/>
<path d="M158.756 166.559H151.854V173.461H158.756V166.559Z" fill="black"/>
<path d="M172.561 166.559H165.658V173.461H172.561V166.559Z" fill="black"/>
<path d="M179.463 166.559H172.561V173.461H179.463V166.559Z" fill="black"/>
<path d="M207.074 166.559H200.171V173.461H207.074V166.559Z" fill="black"/>
<path d="M227.781 166.559H220.878V173.461H227.781V166.559Z" fill="black"/>
<path d="M241.585 166.559H234.683V173.461H241.585V166.559Z" fill="black"/>
<path d="M262.293 166.559H255.39V173.461H262.293V166.559Z" fill="black"/>
<path d="M276.097 166.559H269.195V173.461H276.097V166.559Z" fill="black"/>
<path d="M283 166.559H276.097V173.461H283V166.559Z" fill="black"/>
<path d="M6.90244 173.461H0V180.363H6.90244V173.461Z" fill="black"/>
<path d="M55.2192 173.461H48.3168V180.363H55.2192V173.461Z" fill="black"/>
<path d="M62.1217 173.461H55.2192V180.363H62.1217V173.461Z" fill="black"/>
<path d="M69.0243 173.461H62.1218V180.363H69.0243V173.461Z" fill="black"/>
<path d="M75.9269 173.461H69.0244V180.363H75.9269V173.461Z" fill="black"/>
<path d="M82.8293 173.461H75.9269V180.363H82.8293V173.461Z" fill="black"/>
<path d="M89.7319 173.461H82.8295V180.363H89.7319V173.461Z" fill="black"/>
<path d="M96.6339 173.461H89.7314V180.363H96.6339V173.461Z" fill="black"/>
<path d="M131.147 173.461H124.244V180.363H131.147V173.461Z" fill="black"/>
<path d="M138.049 173.461H131.146V180.363H138.049V173.461Z" fill="black"/>
<path d="M151.854 173.461H144.951V180.363H151.854V173.461Z" fill="black"/>
<path d="M172.561 173.461H165.658V180.363H172.561V173.461Z" fill="black"/>
<path d="M186.366 173.461H179.464V180.363H186.366V173.461Z" fill="black"/>
<path d="M213.976 173.461H207.073V180.363H213.976V173.461Z" fill="black"/>
<path d="M220.878 173.461H213.976V180.363H220.878V173.461Z" fill="black"/>
<path d="M234.683 173.461H227.78V180.363H234.683V173.461Z" fill="black"/>
<path d="M262.293 173.461H255.39V180.363H262.293V173.461Z" fill="black"/>
<path d="M276.097 173.461H269.195V180.363H276.097V173.461Z" fill="black"/>
<path d="M13.805 180.364H6.90259V187.267H13.805V180.364Z" fill="black"/>
<path d="M20.707 180.364H13.8046V187.267H20.707V180.364Z" fill="black"/>
<path d="M34.5127 180.364H27.6102V187.267H34.5127V180.364Z" fill="black"/>
<path d="M41.4146 180.364H34.5122V187.267H41.4146V180.364Z" fill="black"/>
<path d="M48.3171 180.364H41.4147V187.267H48.3171V180.364Z" fill="black"/>
<path d="M55.2192 180.364H48.3168V187.267H55.2192V180.364Z" fill="black"/>
<path d="M62.1217 180.364H55.2192V187.267H62.1217V180.364Z" fill="black"/>
<path d="M69.0243 180.364H62.1218V187.267H69.0243V180.364Z" fill="black"/>
<path d="M96.6339 180.364H89.7314V187.267H96.6339V180.364Z" fill="black"/>
<path d="M110.439 180.364H103.536V187.267H110.439V180.364Z" fill="black"/>
<path d="M117.342 180.364H110.439V187.267H117.342V180.364Z" fill="black"/>
<path d="M124.244 180.364H117.342V187.267H124.244V180.364Z" fill="black"/>
<path d="M131.147 180.364H124.244V187.267H131.147V180.364Z" fill="black"/>
<path d="M138.049 180.364H131.146V187.267H138.049V180.364Z" fill="black"/>
<path d="M165.659 180.364H158.756V187.267H165.659V180.364Z" fill="black"/>
<path d="M200.17 180.364H193.268V187.267H200.17V180.364Z" fill="black"/>
<path d="M207.074 180.364H200.171V187.267H207.074V180.364Z" fill="black"/>
<path d="M213.976 180.364H207.073V187.267H213.976V180.364Z" fill="black"/>
<path d="M227.781 180.364H220.878V187.267H227.781V180.364Z" fill="black"/>
<path d="M241.585 180.364H234.683V187.267H241.585V180.364Z" fill="black"/>
<path d="M248.488 180.364H241.586V187.267H248.488V180.364Z" fill="black"/>
<path d="M255.39 180.364H248.488V187.267H255.39V180.364Z" fill="black"/>
<path d="M276.097 180.364H269.195V187.267H276.097V180.364Z" fill="black"/>
<path d="M283 180.364H276.097V187.267H283V180.364Z" fill="black"/>
<path d="M13.805 187.267H6.90259V194.169H13.805V187.267Z" fill="black"/>
<path d="M41.4146 187.267H34.5122V194.169H41.4146V187.267Z" fill="black"/>
<path d="M89.7319 187.267H82.8295V194.169H89.7319V187.267Z" fill="black"/>
<path d="M124.244 187.267H117.342V194.169H124.244V187.267Z" fill="black"/>
<path d="M138.049 187.267H131.146V194.169H138.049V187.267Z" fill="black"/>
<path d="M144.951 187.267H138.049V194.169H144.951V187.267Z" fill="black"/>
<path d="M151.854 187.267H144.951V194.169H151.854V187.267Z" fill="black"/>
<path d="M158.756 187.267H151.854V194.169H158.756V187.267Z" fill="black"/>
<path d="M165.659 187.267H158.756V194.169H165.659V187.267Z" fill="black"/>
<path d="M172.561 187.267H165.658V194.169H172.561V187.267Z" fill="black"/>
<path d="M179.463 187.267H172.561V194.169H179.463V187.267Z" fill="black"/>
<path d="M186.366 187.267H179.464V194.169H186.366V187.267Z" fill="black"/>
<path d="M200.17 187.267H193.268V194.169H200.17V187.267Z" fill="black"/>
<path d="M207.074 187.267H200.171V194.169H207.074V187.267Z" fill="black"/>
<path d="M227.781 187.267H220.878V194.169H227.781V187.267Z" fill="black"/>
<path d="M241.585 187.267H234.683V194.169H241.585V187.267Z" fill="black"/>
<path d="M248.488 187.267H241.586V194.169H248.488V187.267Z" fill="black"/>
<path d="M255.39 187.267H248.488V194.169H255.39V187.267Z" fill="black"/>
<path d="M276.097 187.267H269.195V194.169H276.097V187.267Z" fill="black"/>
<path d="M283 187.267H276.097V194.169H283V187.267Z" fill="black"/>
<path d="M6.90244 194.169H0V201.071H6.90244V194.169Z" fill="black"/>
<path d="M13.805 194.169H6.90259V201.071H13.805V194.169Z" fill="black"/>
<path d="M48.3171 194.169H41.4147V201.071H48.3171V194.169Z" fill="black"/>
<path d="M55.2192 194.169H48.3168V201.071H55.2192V194.169Z" fill="black"/>
<path d="M62.1217 194.169H55.2192V201.071H62.1217V194.169Z" fill="black"/>
<path d="M75.9269 194.169H69.0244V201.071H75.9269V194.169Z" fill="black"/>
<path d="M96.6339 194.169H89.7314V201.071H96.6339V194.169Z" fill="black"/>
<path d="M138.049 194.169H131.146V201.071H138.049V194.169Z" fill="black"/>
<path d="M172.561 194.169H165.658V201.071H172.561V194.169Z" fill="black"/>
<path d="M193.268 194.169H186.365V201.071H193.268V194.169Z" fill="black"/>
<path d="M200.17 194.169H193.268V201.071H200.17V194.169Z" fill="black"/>
<path d="M207.074 194.169H200.171V201.071H207.074V194.169Z" fill="black"/>
<path d="M213.976 194.169H207.073V201.071H213.976V194.169Z" fill="black"/>
<path d="M283 194.169H276.097V201.071H283V194.169Z" fill="black"/>
<path d="M13.805 201.071H6.90259V207.974H13.805V201.071Z" fill="black"/>
<path d="M34.5127 201.071H27.6102V207.974H34.5127V201.071Z" fill="black"/>
<path d="M41.4146 201.071H34.5122V207.974H41.4146V201.071Z" fill="black"/>
<path d="M62.1217 201.071H55.2192V207.974H62.1217V201.071Z" fill="black"/>
<path d="M82.8293 201.071H75.9269V207.974H82.8293V201.071Z" fill="black"/>
<path d="M117.342 201.071H110.439V207.974H117.342V201.071Z" fill="black"/>
<path d="M124.244 201.071H117.342V207.974H124.244V201.071Z" fill="black"/>
<path d="M144.951 201.071H138.049V207.974H144.951V201.071Z" fill="black"/>
<path d="M172.561 201.071H165.658V207.974H172.561V201.071Z" fill="black"/>
<path d="M179.463 201.071H172.561V207.974H179.463V201.071Z" fill="black"/>
<path d="M207.074 201.071H200.171V207.974H207.074V201.071Z" fill="black"/>
<path d="M213.976 201.071H207.073V207.974H213.976V201.071Z" fill="black"/>
<path d="M227.781 201.071H220.878V207.974H227.781V201.071Z" fill="black"/>
<path d="M241.585 201.071H234.683V207.974H241.585V201.071Z" fill="black"/>
<path d="M248.488 201.071H241.586V207.974H248.488V201.071Z" fill="black"/>
<path d="M262.293 201.071H255.39V207.974H262.293V201.071Z" fill="black"/>
<path d="M269.195 201.071H262.293V207.974H269.195V201.071Z" fill="black"/>
<path d="M283 201.071H276.097V207.974H283V201.071Z" fill="black"/>
<path d="M6.90244 207.974H0V214.876H6.90244V207.974Z" fill="black"/>
<path d="M34.5127 207.974H27.6102V214.876H34.5127V207.974Z" fill="black"/>
<path d="M48.3171 207.974H41.4147V214.876H48.3171V207.974Z" fill="black"/>
<path d="M62.1217 207.974H55.2192V214.876H62.1217V207.974Z" fill="black"/>
<path d="M69.0243 207.974H62.1218V214.876H69.0243V207.974Z" fill="black"/>
<path d="M96.6339 207.974H89.7314V214.876H96.6339V207.974Z" fill="black"/>
<path d="M110.439 207.974H103.536V214.876H110.439V207.974Z" fill="black"/>
<path d="M117.342 207.974H110.439V214.876H117.342V207.974Z" fill="black"/>
<path d="M124.244 207.974H117.342V214.876H124.244V207.974Z" fill="black"/>
<path d="M138.049 207.974H131.146V214.876H138.049V207.974Z" fill="black"/>
<path d="M165.659 207.974H158.756V214.876H165.659V207.974Z" fill="black"/>
<path d="M172.561 207.974H165.658V214.876H172.561V207.974Z" fill="black"/>
<path d="M179.463 207.974H172.561V214.876H179.463V207.974Z" fill="black"/>
<path d="M186.366 207.974H179.464V214.876H186.366V207.974Z" fill="black"/>
<path d="M227.781 207.974H220.878V214.876H227.781V207.974Z" fill="black"/>
<path d="M248.488 207.974H241.586V214.876H248.488V207.974Z" fill="black"/>
<path d="M262.293 207.974H255.39V214.876H262.293V207.974Z" fill="black"/>
<path d="M283 207.974H276.097V214.876H283V207.974Z" fill="black"/>
<path d="M34.5127 214.876H27.6102V221.778H34.5127V214.876Z" fill="black"/>
<path d="M55.2192 214.876H48.3168V221.778H55.2192V214.876Z" fill="black"/>
<path d="M62.1217 214.876H55.2192V221.778H62.1217V214.876Z" fill="black"/>
<path d="M75.9269 214.876H69.0244V221.778H75.9269V214.876Z" fill="black"/>
<path d="M89.7319 214.876H82.8295V221.778H89.7319V214.876Z" fill="black"/>
<path d="M96.6339 214.876H89.7314V221.778H96.6339V214.876Z" fill="black"/>
<path d="M131.147 214.876H124.244V221.778H131.147V214.876Z" fill="black"/>
<path d="M144.951 214.876H138.049V221.778H144.951V214.876Z" fill="black"/>
<path d="M158.756 214.876H151.854V221.778H158.756V214.876Z" fill="black"/>
<path d="M172.561 214.876H165.658V221.778H172.561V214.876Z" fill="black"/>
<path d="M186.366 214.876H179.464V221.778H186.366V214.876Z" fill="black"/>
<path d="M207.074 214.876H200.171V221.778H207.074V214.876Z" fill="black"/>
<path d="M234.683 214.876H227.78V221.778H234.683V214.876Z" fill="black"/>
<path d="M255.39 214.876H248.488V221.778H255.39V214.876Z" fill="black"/>
<path d="M262.293 214.876H255.39V221.778H262.293V214.876Z" fill="black"/>
<path d="M6.90244 221.778H0V228.681H6.90244V221.778Z" fill="black"/>
<path d="M41.4146 221.778H34.5122V228.681H41.4146V221.778Z" fill="black"/>
<path d="M48.3171 221.778H41.4147V228.681H48.3171V221.778Z" fill="black"/>
<path d="M55.2192 221.778H48.3168V228.681H55.2192V221.778Z" fill="black"/>
<path d="M62.1217 221.778H55.2192V228.681H62.1217V221.778Z" fill="black"/>
<path d="M69.0243 221.778H62.1218V228.681H69.0243V221.778Z" fill="black"/>
<path d="M75.9269 221.778H69.0244V228.681H75.9269V221.778Z" fill="black"/>
<path d="M82.8293 221.778H75.9269V228.681H82.8293V221.778Z" fill="black"/>
<path d="M110.439 221.778H103.536V228.681H110.439V221.778Z" fill="black"/>
<path d="M117.342 221.778H110.439V228.681H117.342V221.778Z" fill="black"/>
<path d="M124.244 221.778H117.342V228.681H124.244V221.778Z" fill="black"/>
<path d="M138.049 221.778H131.146V228.681H138.049V221.778Z" fill="black"/>
<path d="M179.463 221.778H172.561V228.681H179.463V221.778Z" fill="black"/>
<path d="M200.17 221.778H193.268V228.681H200.17V221.778Z" fill="black"/>
<path d="M220.878 221.778H213.976V228.681H220.878V221.778Z" fill="black"/>
<path d="M227.781 221.778H220.878V228.681H227.781V221.778Z" fill="black"/>
<path d="M234.683 221.778H227.78V228.681H234.683V221.778Z" fill="black"/>
<path d="M241.585 221.778H234.683V228.681H241.585V221.778Z" fill="black"/>
<path d="M248.488 221.778H241.586V228.681H248.488V221.778Z" fill="black"/>
<path d="M255.39 221.778H248.488V228.681H255.39V221.778Z" fill="black"/>
<path d="M269.195 221.778H262.293V228.681H269.195V221.778Z" fill="black"/>
<path d="M276.097 221.778H269.195V228.681H276.097V221.778Z" fill="black"/>
<path d="M283 221.778H276.097V228.681H283V221.778Z" fill="black"/>
<path d="M62.1217 228.681H55.2192V235.583H62.1217V228.681Z" fill="black"/>
<path d="M96.6339 228.681H89.7314V235.583H96.6339V228.681Z" fill="black"/>
<path d="M103.536 228.681H96.634V235.583H103.536V228.681Z" fill="black"/>
<path d="M117.342 228.681H110.439V235.583H117.342V228.681Z" fill="black"/>
<path d="M124.244 228.681H117.342V235.583H124.244V228.681Z" fill="black"/>
<path d="M131.147 228.681H124.244V235.583H131.147V228.681Z" fill="black"/>
<path d="M151.854 228.681H144.951V235.583H151.854V228.681Z" fill="black"/>
<path d="M158.756 228.681H151.854V235.583H158.756V228.681Z" fill="black"/>
<path d="M179.463 228.681H172.561V235.583H179.463V228.681Z" fill="black"/>
<path d="M186.366 228.681H179.464V235.583H186.366V228.681Z" fill="black"/>
<path d="M200.17 228.681H193.268V235.583H200.17V228.681Z" fill="black"/>
<path d="M207.074 228.681H200.171V235.583H207.074V228.681Z" fill="black"/>
<path d="M227.781 228.681H220.878V235.583H227.781V228.681Z" fill="black"/>
<path d="M255.39 228.681H248.488V235.583H255.39V228.681Z" fill="black"/>
<path d="M276.097 228.681H269.195V235.583H276.097V228.681Z" fill="black"/>
<path d="M283 228.681H276.097V235.583H283V228.681Z" fill="black"/>
<path d="M62.1217 235.583H55.2192V242.485H62.1217V235.583Z" fill="black"/>
<path d="M75.9269 235.583H69.0244V242.485H75.9269V235.583Z" fill="black"/>
<path d="M82.8293 235.583H75.9269V242.485H82.8293V235.583Z" fill="black"/>
<path d="M96.6339 235.583H89.7314V242.485H96.6339V235.583Z" fill="black"/>
<path d="M103.536 235.583H96.634V242.485H103.536V235.583Z" fill="black"/>
<path d="M110.439 235.583H103.536V242.485H110.439V235.583Z" fill="black"/>
<path d="M124.244 235.583H117.342V242.485H124.244V235.583Z" fill="black"/>
<path d="M131.147 235.583H124.244V242.485H131.147V235.583Z" fill="black"/>
<path d="M138.049 235.583H131.146V242.485H138.049V235.583Z" fill="black"/>
<path d="M144.951 235.583H138.049V242.485H144.951V235.583Z" fill="black"/>
<path d="M158.756 235.583H151.854V242.485H158.756V235.583Z" fill="black"/>
<path d="M172.561 235.583H165.658V242.485H172.561V235.583Z" fill="black"/>
<path d="M179.463 235.583H172.561V242.485H179.463V235.583Z" fill="black"/>
<path d="M186.366 235.583H179.464V242.485H186.366V235.583Z" fill="black"/>
<path d="M200.17 235.583H193.268V242.485H200.17V235.583Z" fill="black"/>
<path d="M207.074 235.583H200.171V242.485H207.074V235.583Z" fill="black"/>
<path d="M213.976 235.583H207.073V242.485H213.976V235.583Z" fill="black"/>
<path d="M227.781 235.583H220.878V242.485H227.781V235.583Z" fill="black"/>
<path d="M241.585 235.583H234.683V242.485H241.585V235.583Z" fill="black"/>
<path d="M255.39 235.583H248.488V242.485H255.39V235.583Z" fill="black"/>
<path d="M276.097 235.583H269.195V242.485H276.097V235.583Z" fill="black"/>
<path d="M62.1217 242.485H55.2192V249.388H62.1217V242.485Z" fill="black"/>
<path d="M69.0243 242.485H62.1218V249.388H69.0243V242.485Z" fill="black"/>
<path d="M75.9269 242.485H69.0244V249.388H75.9269V242.485Z" fill="black"/>
<path d="M82.8293 242.485H75.9269V249.388H82.8293V242.485Z" fill="black"/>
<path d="M96.6339 242.485H89.7314V249.388H96.6339V242.485Z" fill="black"/>
<path d="M103.536 242.485H96.634V249.388H103.536V242.485Z" fill="black"/>
<path d="M138.049 242.485H131.146V249.388H138.049V242.485Z" fill="black"/>
<path d="M151.854 242.485H144.951V249.388H151.854V242.485Z" fill="black"/>
<path d="M165.659 242.485H158.756V249.388H165.659V242.485Z" fill="black"/>
<path d="M172.561 242.485H165.658V249.388H172.561V242.485Z" fill="black"/>
<path d="M179.463 242.485H172.561V249.388H179.463V242.485Z" fill="black"/>
<path d="M193.268 242.485H186.365V249.388H193.268V242.485Z" fill="black"/>
<path d="M227.781 242.485H220.878V249.388H227.781V242.485Z" fill="black"/>
<path d="M255.39 242.485H248.488V249.388H255.39V242.485Z" fill="black"/>
<path d="M269.195 242.485H262.293V249.388H269.195V242.485Z" fill="black"/>
<path d="M276.097 242.485H269.195V249.388H276.097V242.485Z" fill="black"/>
<path d="M283 242.485H276.097V249.388H283V242.485Z" fill="black"/>
<path d="M69.0243 249.389H62.1218V256.291H69.0243V249.389Z" fill="black"/>
<path d="M82.8293 249.389H75.9269V256.291H82.8293V249.389Z" fill="black"/>
<path d="M96.6339 249.389H89.7314V256.291H96.6339V249.389Z" fill="black"/>
<path d="M117.342 249.389H110.439V256.291H117.342V249.389Z" fill="black"/>
<path d="M124.244 249.389H117.342V256.291H124.244V249.389Z" fill="black"/>
<path d="M131.147 249.389H124.244V256.291H131.147V249.389Z" fill="black"/>
<path d="M138.049 249.389H131.146V256.291H138.049V249.389Z" fill="black"/>
<path d="M144.951 249.389H138.049V256.291H144.951V249.389Z" fill="black"/>
<path d="M158.756 249.389H151.854V256.291H158.756V249.389Z" fill="black"/>
<path d="M186.366 249.389H179.464V256.291H186.366V249.389Z" fill="black"/>
<path d="M193.268 249.389H186.365V256.291H193.268V249.389Z" fill="black"/>
<path d="M207.074 249.389H200.171V256.291H207.074V249.389Z" fill="black"/>
<path d="M213.976 249.389H207.073V256.291H213.976V249.389Z" fill="black"/>
<path d="M227.781 249.389H220.878V256.291H227.781V249.389Z" fill="black"/>
<path d="M234.683 249.389H227.78V256.291H234.683V249.389Z" fill="black"/>
<path d="M241.585 249.389H234.683V256.291H241.585V249.389Z" fill="black"/>
<path d="M248.488 249.389H241.586V256.291H248.488V249.389Z" fill="black"/>
<path d="M255.39 249.389H248.488V256.291H255.39V249.389Z" fill="black"/>
<path d="M262.293 249.389H255.39V256.291H262.293V249.389Z" fill="black"/>
<path d="M269.195 249.389H262.293V256.291H269.195V249.389Z" fill="black"/>
<path d="M283 249.389H276.097V256.291H283V249.389Z" fill="black"/>
<path d="M62.1217 256.291H55.2192V263.193H62.1217V256.291Z" fill="black"/>
<path d="M69.0243 256.291H62.1218V263.193H69.0243V256.291Z" fill="black"/>
<path d="M75.9269 256.291H69.0244V263.193H75.9269V256.291Z" fill="black"/>
<path d="M82.8293 256.291H75.9269V263.193H82.8293V256.291Z" fill="black"/>
<path d="M89.7319 256.291H82.8295V263.193H89.7319V256.291Z" fill="black"/>
<path d="M103.536 256.291H96.634V263.193H103.536V256.291Z" fill="black"/>
<path d="M110.439 256.291H103.536V263.193H110.439V256.291Z" fill="black"/>
<path d="M124.244 256.291H117.342V263.193H124.244V256.291Z" fill="black"/>
<path d="M131.147 256.291H124.244V263.193H131.147V256.291Z" fill="black"/>
<path d="M138.049 256.291H131.146V263.193H138.049V256.291Z" fill="black"/>
<path d="M151.854 256.291H144.951V263.193H151.854V256.291Z" fill="black"/>
<path d="M186.366 256.291H179.464V263.193H186.366V256.291Z" fill="black"/>
<path d="M207.074 256.291H200.171V263.193H207.074V256.291Z" fill="black"/>
<path d="M213.976 256.291H207.073V263.193H213.976V256.291Z" fill="black"/>
<path d="M227.781 256.291H220.878V263.193H227.781V256.291Z" fill="black"/>
<path d="M234.683 256.291H227.78V263.193H234.683V256.291Z" fill="black"/>
<path d="M241.585 256.291H234.683V263.193H241.585V256.291Z" fill="black"/>
<path d="M255.39 256.291H248.488V263.193H255.39V256.291Z" fill="black"/>
<path d="M262.293 256.291H255.39V263.193H262.293V256.291Z" fill="black"/>
<path d="M276.097 256.291H269.195V263.193H276.097V256.291Z" fill="black"/>
<path d="M283 256.291H276.097V263.193H283V256.291Z" fill="black"/>
<path d="M69.0243 263.193H62.1218V270.096H69.0243V263.193Z" fill="black"/>
<path d="M89.7319 263.193H82.8295V270.096H89.7319V263.193Z" fill="black"/>
<path d="M124.244 263.193H117.342V270.096H124.244V263.193Z" fill="black"/>
<path d="M131.147 263.193H124.244V270.096H131.147V263.193Z" fill="black"/>
<path d="M144.951 263.193H138.049V270.096H144.951V263.193Z" fill="black"/>
<path d="M151.854 263.193H144.951V270.096H151.854V263.193Z" fill="black"/>
<path d="M165.659 263.193H158.756V270.096H165.659V263.193Z" fill="black"/>
<path d="M186.366 263.193H179.464V270.096H186.366V263.193Z" fill="black"/>
<path d="M220.878 263.193H213.976V270.096H220.878V263.193Z" fill="black"/>
<path d="M255.39 263.193H248.488V270.096H255.39V263.193Z" fill="black"/>
<path d="M262.293 263.193H255.39V270.096H262.293V263.193Z" fill="black"/>
<path d="M269.195 263.193H262.293V270.096H269.195V263.193Z" fill="black"/>
<path d="M276.097 263.193H269.195V270.096H276.097V263.193Z" fill="black"/>
<path d="M283 263.193H276.097V270.096H283V263.193Z" fill="black"/>
<path d="M62.1217 270.096H55.2192V276.998H62.1217V270.096Z" fill="black"/>
<path d="M89.7319 270.096H82.8295V276.998H89.7319V270.096Z" fill="black"/>
<path d="M96.6339 270.096H89.7314V276.998H96.6339V270.096Z" fill="black"/>
<path d="M117.342 270.096H110.439V276.998H117.342V270.096Z" fill="black"/>
<path d="M124.244 270.096H117.342V276.998H124.244V270.096Z" fill="black"/>
<path d="M138.049 270.096H131.146V276.998H138.049V270.096Z" fill="black"/>
<path d="M151.854 270.096H144.951V276.998H151.854V270.096Z" fill="black"/>
<path d="M172.561 270.096H165.658V276.998H172.561V270.096Z" fill="black"/>
<path d="M179.463 270.096H172.561V276.998H179.463V270.096Z" fill="black"/>
<path d="M200.17 270.096H193.268V276.998H200.17V270.096Z" fill="black"/>
<path d="M207.074 270.096H200.171V276.998H207.074V270.096Z" fill="black"/>
<path d="M213.976 270.096H207.073V276.998H213.976V270.096Z" fill="black"/>
<path d="M220.878 270.096H213.976V276.998H220.878V270.096Z" fill="black"/>
<path d="M227.781 270.096H220.878V276.998H227.781V270.096Z" fill="black"/>
<path d="M248.488 270.096H241.586V276.998H248.488V270.096Z" fill="black"/>
<path d="M276.097 270.096H269.195V276.998H276.097V270.096Z" fill="black"/>
<path d="M69.0243 276.998H62.1218V283.9H69.0243V276.998Z" fill="black"/>
<path d="M96.6339 276.998H89.7314V283.9H96.6339V276.998Z" fill="black"/>
<path d="M110.439 276.998H103.536V283.9H110.439V276.998Z" fill="black"/>
<path d="M117.342 276.998H110.439V283.9H117.342V276.998Z" fill="black"/>
<path d="M138.049 276.998H131.146V283.9H138.049V276.998Z" fill="black"/>
<path d="M144.951 276.998H138.049V283.9H144.951V276.998Z" fill="black"/>
<path d="M158.756 276.998H151.854V283.9H158.756V276.998Z" fill="black"/>
<path d="M193.268 276.998H186.365V283.9H193.268V276.998Z" fill="black"/>
<path d="M207.074 276.998H200.171V283.9H207.074V276.998Z" fill="black"/>
<path d="M213.976 276.998H207.073V283.9H213.976V276.998Z" fill="black"/>
<path d="M227.781 276.998H220.878V283.9H227.781V276.998Z" fill="black"/>
<path d="M234.683 276.998H227.78V283.9H234.683V276.998Z" fill="black"/>
<path d="M241.585 276.998H234.683V283.9H241.585V276.998Z" fill="black"/>
<path d="M248.488 276.998H241.586V283.9H248.488V276.998Z" fill="black"/>
<path d="M255.39 276.998H248.488V283.9H255.39V276.998Z" fill="black"/>
<path d="M276.097 276.998H269.195V283.9H276.097V276.998Z" fill="black"/>
</svg>
