<svg width="67" height="40" viewBox="0 0 67 40" fill="none" xmlns="http://www.w3.org/2000/svg">
<path d="M64.6146 3.00337C65.0733 1.45545 64.6146 0.320312 62.4456 0.320312H55.2602C53.4319 0.320312 52.5964 1.30233 52.1377 2.38087C52.1377 2.38087 48.4844 11.432 43.3075 17.3008C41.6365 19.0085 40.8731 19.5478 39.9622 19.5478C39.5068 19.5478 38.8449 19.0085 38.8449 17.4606V3.00337C38.8449 1.14587 38.3174 0.320312 36.7938 0.320312H25.503C24.3628 0.320312 23.6747 1.17916 23.6747 1.99805C23.6747 3.75569 26.2632 4.16181 26.5286 9.11514V19.8607C26.5286 22.2142 26.1124 22.6436 25.195 22.6436C22.7606 22.6436 16.8367 13.5592 13.321 3.15982C12.6362 1.13921 11.9448 0.323643 10.11 0.323643H2.92792C0.873552 0.323643 0.463989 1.30565 0.463989 2.3842C0.463989 4.32159 2.89843 13.9087 11.804 26.5883C17.741 35.2466 26.0993 39.9403 33.7139 39.9403C38.2781 39.9403 38.8417 38.8984 38.8417 37.1008V30.5563C38.8417 28.4724 39.2774 28.053 40.7224 28.053C41.784 28.053 43.6122 28.5989 47.875 32.77C52.7438 37.7166 53.5499 39.937 56.2858 39.937H63.4678C65.5189 39.937 66.5445 38.8951 65.9547 36.8378C65.3092 34.7906 62.9829 31.8113 59.8965 28.286C58.2189 26.2754 55.7124 24.1116 54.9489 23.0297C53.8841 21.635 54.1921 21.0191 54.9489 19.7808C54.9489 19.7808 63.7038 7.26097 64.6146 3.00337Z" fill="#5C7AF0"/>
</svg>
