<svg width="79" height="48" viewBox="0 0 79 48" fill="none" xmlns="http://www.w3.org/2000/svg">
<g clip-path="url(#clip0_46_4)">
<path d="M31.4145 47.4917C31.418 47.6991 26.8042 48.1464 21.5296 47.9527C16.2504 47.7591 13.3435 47.1977 11.2999 46.6848C8.40795 45.9585 6.42062 45.1205 4.63329 43.9183C3.88503 43.4145 2.49424 42.3909 1.30001 40.6907C0.429906 39.4515 0.210369 38.6308 0.1506 38.3852C-0.0390525 37.6118 -0.096523 36.6631 0.265541 35.1577C0.949439 32.3139 2.45057 30.3059 2.79424 29.8552C4.81605 27.204 7.3459 25.1879 10.6102 23.1695C12.0723 22.2657 16.5308 19.5995 23.2537 17.2907C27.6042 15.7967 31.018 15.0993 34.403 14.4089C39.3041 13.4083 42.4121 13.1225 43.5982 13.0256C45.9063 12.8366 47.6993 12.8101 48.8855 12.7951C51.905 12.7559 55.205 12.8712 55.2073 13.0256C55.2084 13.1397 53.428 13.1616 50.3798 13.4867C47.6281 13.7806 45.6097 14.1322 43.3684 14.5241C39.9822 15.1155 38.2891 15.4106 36.0121 16.0227C33.5524 16.6832 31.7099 17.3529 29.3456 18.2128C27.6433 18.8318 26.2261 19.354 24.4031 20.1724C22.2009 21.1615 20.3354 22.1701 19.2308 22.8237C15.3642 25.1095 8.38611 29.235 7.85164 35.5035C7.79417 36.1767 7.66313 37.9714 8.54128 39.8838C10.8148 44.8324 17.7572 46.0185 22.3342 46.8C27.5732 47.6945 31.4111 47.3015 31.4145 47.4917Z" fill="white"/>
<path d="M11.9895 40.1143C12.1102 40.1097 12.1734 39.5126 12.2194 39.1921C12.2194 39.1921 12.3378 38.3668 13.2539 36.3104C15.8193 30.5503 23.5985 25.2443 23.5985 25.2443C29.3973 21.2894 34.7616 19.6745 37.3914 18.9044C40.4466 18.0099 43.9707 17.2941 47.3913 16.599C52.1636 15.6284 55.3452 15.1639 55.3222 14.9852C55.2981 14.7996 51.8659 15.0832 49.5752 15.331C45.004 15.8256 41.6419 16.5402 40.8397 16.7143C37.3742 17.4647 34.8397 18.2578 32.7938 18.9044C29.2881 20.0122 27.0077 20.7315 24.0583 22.132C21.602 23.2974 18.9572 24.5769 16.1274 27.0887C14.3504 28.6656 12.8964 29.9866 11.9895 32.2759C10.7884 35.3075 11.3343 38.0544 11.4148 38.3852C11.4493 38.527 11.5849 38.9881 11.6447 39.1921C11.8849 40.0094 11.9378 40.1166 11.9895 40.1143Z" fill="white"/>
<path d="M53.713 9.68276L56.1268 13.9478L54.2877 18.6739H55.7118L58.4256 15.2158L65.8967 15.1005L60.3796 27.7803H61.5589L71.5737 14.9253L71.4139 12.1035L60.4945 0H59.1003L65.7818 12.334L58.5405 13.0256L55.3222 9.55712L53.713 9.68276Z" fill="white"/>
<path d="M79 13.1409C78.8011 12.9738 78.4942 12.7478 78.0804 12.5645C77.6839 12.3893 77.1966 12.3329 76.2414 12.2187C75.7242 12.1565 75.3632 12.115 74.8621 12.1035C74.8598 12.1035 74.8621 12.1035 73.9426 12.1035C72.9081 12.1035 72.9116 12.1035 72.9081 12.1035C72.8667 12.1035 72.738 12.1069 72.5633 12.1035C72.461 12.1012 72.3851 12.0977 72.3472 12.0965C72.1346 12.0873 71.9231 12.0816 71.7104 12.0735C70.9633 12.0435 70.5886 12.0285 70.4944 12.1035C69.9173 12.5599 70.8449 15.0798 71.4081 15.036C71.4656 15.0313 71.5093 15.0014 71.5288 14.9852C71.7403 14.9553 72.0587 14.9115 72.4483 14.87C73.1288 14.7973 73.5414 14.7812 73.9426 14.7547C74.538 14.7155 75.477 14.629 76.5862 14.4089C77.2023 14.2867 77.6816 14.1599 78.1954 13.8325C78.5689 13.5939 78.8333 13.3311 79 13.1409Z" fill="white"/>
<path d="M69.0002 9.33696H70.6737L70.7243 8.53006H68.3013H66.5025L69.0002 9.33696Z" fill="white"/>
<path d="M65.7818 5.64828H67.3002V4.84369H63.9382L65.7818 5.64828Z" fill="white"/>
<path d="M63.9382 5.85923L65.7818 5.64828L63.9382 4.84369" fill="white"/>
<path d="M65.7818 22.4778H67.9979V21.6756L64.4025 21.6709V22.4778H65.7818Z" fill="white"/>
<path d="M68.8852 18.5586H71.0691V17.754L67.7358 17.7517V18.5586H68.8852Z" fill="white"/>
</g>
<defs>
<clipPath id="clip0_46_4">
<rect width="79" height="48" fill="white"/>
</clipPath>
</defs>
</svg>
